<svg width="32" height="32" viewBox="0 0 32 32" fill="#676A71" xmlns="http://www.w3.org/2000/svg">
<path d="M26.6265 19.8133L25.8665 14.2666C25.2398 9.63995 21.6665 6.05329 17.3198 5.43995V4.01336C17.3198 3.28002 16.7198 2.68002 15.9865 2.68002C15.2532 2.68002 14.6532 3.28002 14.6532 4.01336V5.43995C10.3065 6.06662 6.75983 9.63995 6.11983 14.2666L5.35984 19.8133C5.15984 21.2533 5.58649 22.6934 6.53316 23.76C7.42649 24.7734 8.69317 25.36 10.0265 25.36H11.4265C11.7198 27.5866 13.6132 29.32 15.9198 29.32C18.2265 29.32 20.1198 27.5866 20.4132 25.36H21.9198C23.2532 25.36 24.5198 24.7734 25.4132 23.76C26.3598 22.68 26.7865 21.24 26.5865 19.8133H26.6265ZM15.9465 26.6667C15.1065 26.6667 14.4132 26.12 14.1598 25.3733H17.7332C17.4798 26.12 16.7865 26.6667 15.9465 26.6667ZM23.4398 22.0134C23.0532 22.4534 22.5198 22.7066 21.9465 22.7066H10.0398C9.4665 22.7066 8.9465 22.4667 8.5465 22.0134C8.11984 21.52 7.91983 20.84 8.01316 20.1734L8.77317 14.6266C9.27984 10.8533 12.3865 8.00001 15.9998 8.00001C19.6132 8.00001 22.7065 10.8533 23.2265 14.6266L23.9865 20.1734C24.0798 20.84 23.8798 21.52 23.4532 22.0134H23.4398Z" fill="#current"/>
</svg>
