<svg width="32" height="32" viewBox="0 0 32 32" fill="#676A71" xmlns="http://www.w3.org/2000/svg">
<path d="M2.65295 8.63998C2.63962 7.39998 3.10632 6.22661 3.97298 5.34661C4.82632 4.47994 5.95963 4.01328 7.15963 4.01328H24.973C26.1063 4.01328 27.1596 4.44 27.9596 5.24C28.8263 6.10667 29.3196 7.36 29.3063 8.65333C29.3063 9.97333 28.7196 11.2266 27.733 12.0933L20.8663 18.2C20.5996 18.44 20.3063 19.1333 20.3063 19.7466V24.04C20.3063 24.9334 19.8263 25.7733 19.053 26.2399L18.853 26.3467L15.3596 27.7199C14.9863 27.9199 14.573 28.0267 14.1596 28.0267C13.733 28.0267 13.3063 27.92 12.9063 27.6934C12.093 27.24 11.5997 26.3733 11.5997 25.44V19.4933C11.5997 19.1867 11.2929 18.5733 10.8129 18.1467L4.13298 11.9733C3.19964 11.1333 2.65298 9.91998 2.63965 8.63998H2.65295ZM17.6796 23.9333L17.6396 19.7332C17.6396 18.5999 18.0929 17.0667 19.1063 16.1867L25.973 10.08C26.3996 9.70667 26.6396 9.18664 26.6396 8.62664C26.6396 8.03997 26.4263 7.47995 26.0663 7.10662C25.853 6.89329 25.5063 6.65333 24.973 6.65333H7.17297C6.67964 6.66666 6.21296 6.86664 5.86629 7.21331C5.50629 7.58664 5.30629 8.0666 5.31962 8.5866V8.62664C5.31962 9.14664 5.55962 9.65334 5.94629 10L12.6263 16.1734C13.3863 16.8667 14.293 18.1467 14.293 19.4933V25.44" fill="current"/>
</svg>
