<svg width="704" height="32" viewBox="0 0 704 32" fill="#676A71" xmlns="http://www.w3.org/2000/svg">
  <g id="shape-icon-1">
    <path d="M22.6667 5.33335V4.00002C22.6667 3.26669 22.0667 2.66669 21.3333 2.66669C20.6 2.66669 20 3.26669 20 4.00002V5.33335H12V4.00002C12 3.26669 11.4 2.66669 10.6667 2.66669C9.93333 2.66669 9.33333 3.26669 9.33333 4.00002V5.33335C6.38667 5.33335 4 7.72002 4 10.6667V22.6667C4 25.6134 6.38667 28 9.33333 28H22.6667C25.6133 28 28 25.6134 28 22.6667V10.6667C28 7.72002 25.6133 5.33335 22.6667 5.33335ZM25.3333 22.6667C25.3333 24.1334 24.1333 25.3334 22.6667 25.3334H9.33333C7.86667 25.3334 6.66667 24.1334 6.66667 22.6667V10.6667C6.66667 9.20002 7.86667 8.00002 9.33333 8.00002V9.33335C9.33333 10.0667 9.93333 10.6667 10.6667 10.6667C11.4 10.6667 12 10.0667 12 9.33335V8.00002H20V9.33335C20 10.0667 20.6 10.6667 21.3333 10.6667C22.0667 10.6667 22.6667 10.0667 22.6667 9.33335V8.00002C24.1333 8.00002 25.3333 9.20002 25.3333 10.6667V22.6667Z" fill="current"/>
    <path d="M12.9467 15.0667C12.4533 14.5733 11.5467 14.5733 11.0533 15.0667C10.9333 15.1867 10.84 15.3334 10.7733 15.4934C10.7067 15.6667 10.6667 15.84 10.6667 16.0133C10.6667 16.1867 10.7067 16.36 10.7733 16.52C10.84 16.68 10.9333 16.8267 11.0533 16.9467C11.3067 17.2 11.6533 17.3467 12 17.3467C12.1733 17.3467 12.3467 17.3067 12.5067 17.24C12.6667 17.1733 12.8133 17.08 12.9467 16.9467C13.0667 16.8267 13.16 16.68 13.2267 16.52C13.3067 16.36 13.3333 16.1867 13.3333 16.0133C13.3333 15.84 13.3067 15.6667 13.2267 15.4934C13.16 15.3334 13.0667 15.1867 12.9467 15.0667Z" fill="current"/>
  </g>
<path d="M12.9467 19.0667C12.88 19 12.8133 18.9467 12.7467 18.9067C12.6667 18.8534 12.5867 18.8133 12.5067 18.7733C12.4267 18.7467 12.3467 18.72 12.2667 18.7067C12.0933 18.6667 11.9067 18.6667 11.7467 18.7067C11.6533 18.7067 11.5733 18.7467 11.4933 18.7733C11.4133 18.8133 11.3333 18.8534 11.2667 18.9067C11.1867 18.9467 11.12 19 11.0533 19.0667C10.9333 19.1867 10.84 19.3334 10.7733 19.4934C10.7067 19.6667 10.6667 19.8267 10.6667 20.0133C10.6667 20.3733 10.8133 20.7067 11.0533 20.9467C11.3067 21.2 11.6533 21.3467 12 21.3467C12.3467 21.3467 12.6933 21.2 12.9467 20.9467C13.2 20.7067 13.3333 20.3733 13.3333 20.0133C13.3333 19.8267 13.2933 19.6667 13.2267 19.4934C13.16 19.3334 13.0667 19.1867 12.9467 19.0667Z" fill="current"/>
<path d="M16.9467 15.0667C16.88 15 16.8133 14.9467 16.7467 14.8933C16.6667 14.8533 16.5867 14.8133 16.5067 14.7733C16.4267 14.7467 16.3467 14.72 16.2667 14.7067C16 14.6534 15.7333 14.68 15.4933 14.7733C15.3333 14.84 15.1867 14.9467 15.0533 15.0667C14.9333 15.1867 14.84 15.3334 14.7733 15.4934C14.7067 15.6667 14.6667 15.84 14.6667 16.0133C14.6667 16.1867 14.7067 16.36 14.7733 16.52C14.84 16.68 14.9333 16.8267 15.0533 16.9467C15.1867 17.08 15.3333 17.1733 15.4933 17.24C15.6533 17.3067 15.8267 17.3467 16 17.3467C16.1733 17.3467 16.3467 17.3067 16.5067 17.24C16.6667 17.1733 16.8133 17.08 16.9467 16.9467C17.0667 16.8267 17.16 16.68 17.2267 16.52C17.3067 16.36 17.3333 16.1867 17.3333 16.0133C17.3333 15.84 17.3067 15.6667 17.2267 15.4934C17.16 15.3334 17.0667 15.1867 16.9467 15.0667Z" fill="current"/>
<path d="M16.9467 19.0667C16.8267 18.9467 16.68 18.84 16.5067 18.7733C16.1867 18.64 15.8133 18.64 15.4933 18.7733C15.3333 18.84 15.1867 18.9467 15.0533 19.0667C14.9333 19.1867 14.84 19.3333 14.7733 19.4933C14.7067 19.6667 14.6667 19.8266 14.6667 20.0133C14.6667 20.1866 14.7067 20.36 14.7733 20.52C14.84 20.68 14.9333 20.8267 15.0533 20.9467C15.1867 21.08 15.3333 21.1733 15.4933 21.24C15.6533 21.3067 15.8267 21.3466 16 21.3466C16.36 21.3466 16.6933 21.2 16.9467 20.9467C17.0667 20.8267 17.16 20.68 17.24 20.52C17.3067 20.36 17.3333 20.1866 17.3333 20.0133C17.3333 19.84 17.3067 19.6667 17.2267 19.4933C17.16 19.3333 17.0667 19.1867 16.9467 19.0667Z" fill="current"/>
<path d="M20.9467 15.0667C20.8267 14.9467 20.68 14.84 20.5067 14.7733C20.0133 14.5733 19.4267 14.6933 19.0533 15.0667C18.9333 15.1867 18.84 15.3333 18.7733 15.4933C18.7067 15.6667 18.6667 15.84 18.6667 16.0133C18.6667 16.1866 18.7067 16.36 18.7733 16.52C18.84 16.68 18.9333 16.8267 19.0533 16.9467C19.1867 17.08 19.3333 17.1733 19.4933 17.24C19.6533 17.3067 19.8267 17.3466 20 17.3466C20.1733 17.3466 20.3467 17.3067 20.5067 17.24C20.6667 17.1733 20.8133 17.08 20.9467 16.9467C21.0667 16.8267 21.16 16.68 21.2267 16.52C21.3067 16.36 21.3333 16.1866 21.3333 16.0133C21.3333 15.84 21.3067 15.6667 21.2267 15.4933C21.16 15.3333 21.0667 15.1867 20.9467 15.0667Z" fill="current"/>
<path d="M20.9467 19.0667C20.88 19 20.8133 18.9467 20.7467 18.9067C20.6667 18.8534 20.5867 18.8133 20.5067 18.7733C20.4267 18.7467 20.3467 18.72 20.2667 18.7067C20.0933 18.6667 19.9067 18.6667 19.7467 18.7067C19.6533 18.7067 19.5733 18.7467 19.4933 18.7733C19.4133 18.8133 19.3333 18.8534 19.2667 18.9067C19.1867 18.9467 19.12 19 19.0533 19.0667C18.9333 19.1867 18.84 19.3334 18.7733 19.4934C18.7067 19.6667 18.6667 19.8267 18.6667 20.0133C18.6667 20.3733 18.8133 20.7067 19.0533 20.9467C19.3067 21.2 19.6533 21.3467 20 21.3467C20.3467 21.3467 20.6933 21.2 20.9467 20.9467C21.2 20.7067 21.3333 20.3733 21.3333 20.0133C21.3333 19.8267 21.2933 19.6667 21.2267 19.4934C21.16 19.3334 21.0667 19.1867 20.9467 19.0667Z" fill="current"/>
<path d="M58.0003 14.6667C61.307 14.6667 64.0003 11.9734 64.0003 8.66669C64.0003 5.36002 61.307 2.66669 58.0003 2.66669C54.6937 2.66669 52.0003 5.36002 52.0003 8.66669C52.0003 11.9734 54.6937 14.6667 58.0003 14.6667ZM58.0003 5.33335C59.8403 5.33335 61.3337 6.82669 61.3337 8.66669C61.3337 10.5067 59.8403 12 58.0003 12C56.1603 12 54.667 10.5067 54.667 8.66669C54.667 6.82669 56.1603 5.33335 58.0003 5.33335Z" fill="current"/>
<path d="M62.0003 16H54.0003C51.0537 16 48.667 18.3867 48.667 21.3334V22.6667C48.667 25.6134 51.0537 28 54.0003 28H62.0003C64.947 28 67.3337 25.6134 67.3337 22.6667V21.3334C67.3337 18.3867 64.947 16 62.0003 16ZM64.667 22.6667C64.667 24.1334 63.467 25.3334 62.0003 25.3334H54.0003C52.5337 25.3334 51.3337 24.1334 51.3337 22.6667V21.3334C51.3337 19.8667 52.5337 18.6667 54.0003 18.6667H62.0003C63.467 18.6667 64.667 19.8667 64.667 21.3334V22.6667Z" fill="current"/>
<path d="M110.413 24.4667L106.547 20.6C108 18.7333 108.787 16.4533 108.787 14.0533C108.787 11.1867 107.667 8.49333 105.64 6.46666C101.467 2.27999 94.6532 2.27999 90.4798 6.46666C86.2932 10.6533 86.2932 17.4533 90.4798 21.6267C92.5065 23.6533 95.1998 24.7733 98.0665 24.7733C100.493 24.7733 102.8 23.96 104.667 22.4933L108.533 26.36C108.8 26.6267 109.133 26.7467 109.48 26.7467C109.827 26.7467 110.16 26.6133 110.427 26.36C110.947 25.84 110.947 25 110.427 24.48L110.413 24.4667ZM92.3598 19.7467C89.2132 16.6 89.2132 11.4933 92.3598 8.35999C93.9332 6.78666 95.9998 5.99999 98.0532 5.99999C100.107 5.99999 102.173 6.78666 103.747 8.35999C105.32 9.93332 106.107 11.9067 106.107 14.0533C106.107 16.2 105.267 18.2267 103.747 19.7467C102.227 21.2667 100.2 22.1067 98.0532 22.1067C95.9065 22.1067 93.8798 21.2667 92.3598 19.7467V19.7467Z" fill="current"/>
<path d="M152.627 19.8133L151.866 14.2666C151.24 9.63991 147.667 6.05325 143.32 5.43992V4.01333C143.32 3.27999 142.72 2.67999 141.987 2.67999C141.253 2.67999 140.653 3.27999 140.653 4.01333V5.43992C136.307 6.06659 132.76 9.63991 132.12 14.2666L131.36 19.8133C131.16 21.2533 131.586 22.6933 132.533 23.76C133.426 24.7733 134.693 25.3599 136.027 25.3599H137.427C137.72 27.5866 139.613 29.32 141.92 29.32C144.227 29.32 146.12 27.5866 146.413 25.3599H147.92C149.253 25.3599 150.52 24.7733 151.413 23.76C152.36 22.68 152.787 21.24 152.587 19.8133H152.627ZM141.947 26.6666C141.107 26.6666 140.413 26.1199 140.16 25.3733H143.733C143.48 26.1199 142.787 26.6666 141.947 26.6666ZM149.44 22.0133C149.053 22.4533 148.52 22.7066 147.947 22.7066H136.04C135.466 22.7066 134.947 22.4667 134.547 22.0133C134.12 21.52 133.92 20.84 134.013 20.1733L134.773 14.6266C135.28 10.8533 138.386 7.99998 142 7.99998C145.613 7.99998 148.706 10.8533 149.226 14.6266L149.987 20.1733C150.08 20.84 149.88 21.52 149.453 22.0133H149.44Z" fill="current"/>
<path d="M177.362 14.191L183.072 19.6212C183.196 19.7412 183.343 19.8365 183.505 19.9015C183.668 19.9665 183.842 20 184.017 20C184.193 20 184.367 19.9665 184.529 19.9015C184.691 19.8365 184.839 19.7412 184.962 19.6212L190.606 14.191C190.731 14.072 190.83 13.9303 190.898 13.7742C190.965 13.6182 191 13.4508 191 13.2817C191 13.1126 190.965 12.9453 190.898 12.7892C190.83 12.6331 190.731 12.4915 190.606 12.3724C190.357 12.1339 190.019 12 189.668 12C189.316 12 188.979 12.1339 188.729 12.3724L184.017 16.9061L179.305 12.3724C179.057 12.1358 178.722 12.0024 178.373 12.001C178.198 12 178.024 12.0323 177.862 12.0961C177.7 12.1598 177.553 12.2537 177.428 12.3724C177.299 12.4872 177.195 12.6255 177.121 12.7792C177.048 12.933 177.007 13.0993 177.001 13.2684C176.995 13.4375 177.023 13.6061 177.085 13.7644C177.147 13.9228 177.241 14.0678 177.362 14.191Z" fill="current"/>
<path d="M238 14.6667H217.027L224.107 7.60002C224.627 7.08002 224.627 6.24002 224.107 5.72002C223.587 5.20002 222.747 5.20002 222.227 5.72002L213.2 14.72C212.88 15.04 212.72 15.4667 212.694 15.8934C212.694 15.9334 212.667 15.96 212.667 16C212.667 16.04 212.68 16.0667 212.694 16.1067C212.72 16.5334 212.88 16.96 213.2 17.28L222.227 26.28C222.494 26.5333 222.827 26.6667 223.174 26.6667C223.52 26.6667 223.854 26.5333 224.12 26.28C224.64 25.76 224.64 24.92 224.12 24.4L217.04 17.3467H238.014C238.747 17.3467 239.347 16.7467 239.347 16.0134C239.347 15.28 238.747 14.68 238.014 14.68L238 14.6667Z" fill="current"/>
<path d="M280.827 14.72C280.614 14.5067 276.014 10.3067 274.6 9.02669C274.054 8.53336 273.214 8.57337 272.72 9.12004C272.227 9.6667 272.267 10.5067 272.814 11C274.04 12.12 275.587 13.5334 276.827 14.6667H259.254C260.907 13.0934 262.867 11.2134 262.867 11.2134C263.4 10.7067 263.414 9.86669 262.907 9.33335C262.4 8.80002 261.56 8.78669 261.027 9.29336C259.294 10.9467 255.254 14.8134 255.16 14.9067C254.88 15.1867 254.72 15.5467 254.68 15.9334C254.64 16.4267 254.814 16.9067 255.187 17.2667C255.387 17.4667 259.814 21.5067 261.174 22.7334C261.427 22.96 261.747 23.08 262.067 23.08C262.427 23.08 262.787 22.9334 263.054 22.64C263.547 22.0934 263.507 21.2534 262.96 20.76C261.814 19.72 260.374 18.4 259.2 17.3334H276.76C275.027 18.9867 272.907 21.0134 272.907 21.0134C272.374 21.52 272.36 22.36 272.867 22.8934C273.134 23.1734 273.48 23.3067 273.827 23.3067C274.16 23.3067 274.494 23.1867 274.747 22.9334C276.547 21.2134 280.76 17.1867 280.854 17.0934C281.427 16.5067 281.574 15.4667 280.814 14.72H280.827Z" fill="current"/>
<path d="M310 13.8666C308.826 13.8666 307.866 14.8266 307.866 16C307.866 17.1733 308.826 18.1333 310 18.1333C311.173 18.1333 312.133 17.1733 312.133 16C312.133 14.8266 311.173 13.8666 310 13.8666Z" fill="current"/>
<path d="M310 22.4C308.826 22.4 307.866 23.36 307.866 24.5333C307.866 25.7066 308.826 26.6666 310 26.6666C311.173 26.6666 312.133 25.7066 312.133 24.5333C312.133 23.36 311.173 22.4 310 22.4Z" fill="current"/>
<path d="M310 9.59995C311.173 9.59995 312.133 8.63995 312.133 7.46661C312.133 6.29328 311.173 5.33331 310 5.33331C308.826 5.33331 307.866 6.29328 307.866 7.46661C307.866 8.63995 308.826 9.59995 310 9.59995Z" fill="current"/>
<path d="M338.653 8.63995C338.64 7.39995 339.106 6.22658 339.973 5.34658C340.826 4.47991 341.96 4.01324 343.16 4.01324H360.973C362.106 4.01324 363.16 4.43997 363.96 5.23997C364.826 6.10664 365.32 7.35997 365.306 8.6533C365.306 9.9733 364.72 11.2266 363.733 12.0932L356.866 18.2C356.6 18.44 356.306 19.1332 356.306 19.7466V24.04C356.306 24.9334 355.826 25.7732 355.053 26.2399L354.853 26.3467L351.36 27.7199C350.986 27.9199 350.573 28.0267 350.16 28.0267C349.733 28.0267 349.306 27.92 348.906 27.6933C348.093 27.24 347.6 26.3733 347.6 25.4399V19.4933C347.6 19.1866 347.293 18.5733 346.813 18.1466L340.133 11.9733C339.2 11.1333 338.653 9.91995 338.64 8.63995H338.653ZM353.68 23.9332L353.64 19.7332C353.64 18.5999 354.093 17.0667 355.106 16.1867L361.973 10.08C362.4 9.70664 362.64 9.18661 362.64 8.62661C362.64 8.03994 362.426 7.47992 362.066 7.10659C361.853 6.89325 361.506 6.6533 360.973 6.6533H343.173C342.68 6.66663 342.213 6.86661 341.866 7.21328C341.506 7.58661 341.306 8.06657 341.32 8.58657V8.62661C341.32 9.14661 341.56 9.65331 341.946 9.99998L348.626 16.1733C349.386 16.8667 350.293 18.1466 350.293 19.4933V25.4399" fill="current"/>
<path d="M404.84 11.6133L398.267 5.03996C397.6 4.37329 396.694 4 395.747 4H389.894C385.48 4 381.894 7.58667 381.894 12V20C381.894 24.4133 385.48 28 389.894 28H397.894C402.307 28 405.894 24.4133 405.894 20V14.1466C405.894 13.2 405.52 12.2933 404.854 11.6266L404.84 11.6133ZM397.547 8.09334L401.8 12.3467H399.68C398.507 12.3467 397.547 11.4533 397.547 10.3467V8.09334ZM397.88 25.32H389.88C386.934 25.32 384.547 22.9333 384.547 19.9867V11.9867C384.547 9.03999 386.934 6.65332 389.88 6.65332H394.867V10.3467C394.867 12.92 397.027 15.0133 399.667 15.0133H403.2V19.9867C403.2 22.9333 400.814 25.32 397.867 25.32H397.88Z" fill="current"/>
<path d="M434.8 23.48C434.987 23.6666 435.213 23.7866 435.453 23.8666C435.627 23.9466 435.813 24 436.013 24C436.213 24 436.4 23.9466 436.56 23.8666C436.8 23.7866 437.027 23.6666 437.213 23.48L444.213 16.4666C444.733 15.9466 444.733 15.1066 444.213 14.5866C443.693 14.0666 442.853 14.0666 442.333 14.5866L437.36 19.5866V4.01333C437.36 3.27999 436.773 2.67999 436.027 2.67999C435.28 2.67999 434.693 3.27999 434.693 4.01333V19.5866L429.707 14.5999C429.187 14.0799 428.347 14.0799 427.827 14.5999C427.307 15.1199 427.307 15.96 427.827 16.48L434.827 23.4933L434.8 23.48Z" fill="current"/>
<path d="M445.333 24C444.6 24 444 24.6 444 25.3333C444 26.2133 443.2 26.68 442.453 26.68H429.52C428.76 26.68 428 26.2133 428 25.3333C428 24.6 427.4 24 426.666 24C425.933 24 425.333 24.6 425.333 25.3333C425.333 27.5867 427.173 29.3467 429.52 29.3467H442.453C444.813 29.3467 446.666 27.5867 446.666 25.3333C446.666 24.6 446.066 24 445.333 24Z" fill="current"/>
<path d="M490.08 12.64C487.454 9.49335 483.24 5.73335 478.014 5.73335C477.014 5.73335 475.987 5.88001 474.974 6.16001C474.267 6.36001 473.854 7.09335 474.054 7.80001C474.254 8.50668 474.987 8.92002 475.694 8.72002C476.467 8.50668 477.254 8.38668 478.014 8.38668C482.414 8.38668 486.174 12.1067 488.027 14.3333C488.867 15.3467 488.88 16.7733 488.067 17.7867C487.747 18.1867 487.387 18.6 486.987 19.0267C486.48 19.56 486.507 20.4133 487.04 20.9067C487.294 21.1467 487.627 21.2667 487.96 21.2667C488.32 21.2667 488.667 21.12 488.934 20.8533C489.387 20.3733 489.787 19.9067 490.147 19.4667C491.76 17.48 491.734 14.6 490.094 12.6267L490.08 12.64Z" fill="current"/>
<path d="M472.734 8.85335C472.694 8.74668 472.667 8.64002 472.6 8.53335C472.427 8.28002 472.187 8.13335 471.934 8.04001L469.614 5.72002C469.094 5.20002 468.24 5.20002 467.734 5.72002C467.214 6.24002 467.214 7.08002 467.734 7.60002L469.36 9.22668C468.187 10.1733 467.054 11.2933 465.947 12.6C464.28 14.5733 464.227 17.36 465.814 19.3867C467.827 21.9467 472.08 26.2534 477.96 26.2534C480.187 26.2534 482.374 25.6134 484.494 24.4L486.36 26.28C486.627 26.5467 486.96 26.6667 487.307 26.6667C487.654 26.6667 487.987 26.5333 488.254 26.28C488.774 25.76 488.774 24.92 488.254 24.4L472.734 8.85335ZM475.427 15.3333L478.667 18.5733C478.454 18.6267 478.227 18.6667 478 18.6667C476.534 18.6667 475.334 17.4667 475.334 16C475.334 15.7733 475.374 15.5467 475.427 15.3333ZM477.947 23.6C473.2 23.6 469.614 19.9333 467.894 17.7467C467.094 16.7333 467.12 15.32 467.96 14.3333C469.014 13.08 470.107 12.0133 471.227 11.1467L473.414 13.3333C472.934 14.1467 472.654 15.0534 472.654 16.0134C472.654 18.96 475.04 21.3467 477.987 21.3467C478.934 21.3467 479.854 21.0667 480.654 20.6L482.507 22.4667C481 23.2267 479.467 23.6133 477.934 23.6133L477.947 23.6Z" fill="current"/>
<path d="M522.667 20C521.933 20 521.333 20.6 521.333 21.3333V22.6667C521.333 24.1067 520.413 25.3333 519.333 25.3333H512.667C511.587 25.3333 510.667 24.1067 510.667 22.6667V9.33333C510.667 7.89333 511.587 6.66667 512.667 6.66667H519.333C520.413 6.66667 521.333 7.89333 521.333 9.33333V10.6667C521.333 11.4 521.933 12 522.667 12C523.4 12 524 11.4 524 10.6667V9.33333C524 6.38667 521.907 4 519.333 4H512.667C510.093 4 508 6.38667 508 9.33333V22.6667C508 25.6133 510.093 28 512.667 28H519.333C521.907 28 524 25.6133 524 22.6667V21.3333C524 20.6 523.4 20 522.667 20Z" fill="current"/>
<path d="M532 16C532 15.8133 531.96 15.6266 531.88 15.4666C531.8 15.2533 531.693 15.0667 531.533 14.9067L527.52 10.9067C527 10.3867 526.16 10.3867 525.64 10.9067C525.12 11.4267 525.12 12.2666 525.64 12.7866L527.52 14.6533H514.666C513.933 14.6533 513.333 15.2533 513.333 15.9867C513.333 16.72 513.933 17.32 514.666 17.32H527.52L525.653 19.1866C525.133 19.7066 525.133 20.5467 525.653 21.0667C525.92 21.3333 526.253 21.4533 526.6 21.4533C526.946 21.4533 527.28 21.32 527.546 21.0667L531.546 17.08C531.706 16.92 531.826 16.7199 531.893 16.5199C531.96 16.3599 532.013 16.1733 532.013 15.9867L532 16Z" fill="current"/>
<path d="M572.454 13.1066C572.454 7.34661 567.76 2.65332 562 2.65332C556.24 2.65332 551.547 7.34661 551.547 13.1066C551.547 16.8266 553.56 20.2399 556.734 22.1066L556.707 24.1066C556.707 26.9999 559.054 29.3467 561.947 29.3467C564.84 29.3467 567.187 26.9999 567.187 24.1066V22.16C570.4 20.3067 572.454 16.8666 572.454 13.1066V13.1066ZM564.52 24.1066C564.52 25.5199 563.36 26.68 561.947 26.68C560.534 26.68 559.374 25.5199 559.374 24.1066V22.72H564.52V24.1066ZM565.52 20.0533H563.334V13.3467C563.334 12.6133 562.734 12.0133 562 12.0133C561.267 12.0133 560.667 12.6133 560.667 13.3467V20.0533H558.48C555.88 18.7333 554.214 16.0399 554.214 13.1066C554.214 8.81327 557.707 5.31999 562 5.31999C566.294 5.31999 569.787 8.81327 569.787 13.1066C569.787 16.0399 568.12 18.7333 565.52 20.0533Z" fill="current"/>
<path d="M609.347 4H598.667C594.987 4 592 6.98667 592 10.6667V21.3467C592 25.0267 594.987 28.0133 598.667 28.0133H609.347C613.027 28.0133 616.013 25.0267 616.013 21.3467V10.6667C616.013 6.98667 613.027 4 609.347 4ZM603.16 15.96L601.333 16.8534V6.66667H606.68V16.8534L604.853 15.96C604.32 15.6933 603.693 15.6933 603.16 15.96ZM613.347 21.3333C613.347 23.5333 611.547 25.3333 609.347 25.3333H598.667C596.467 25.3333 594.667 23.5333 594.667 21.3333V10.6533C594.667 8.45332 596.453 6.66665 598.653 6.65332V18.0533C598.653 18.7066 598.987 19.3067 599.547 19.6667C600.12 20.0267 600.813 20.0534 601.413 19.7734L603.987 18.52L606.56 19.7734C606.827 19.9067 607.12 19.9733 607.4 19.9733C607.76 19.9733 608.107 19.88 608.427 19.68C608.987 19.3333 609.32 18.7333 609.32 18.0666V6.66667C611.52 6.66667 613.32 8.46667 613.32 10.6667V21.3467L613.347 21.3333Z" fill="current"/>
<path d="M646 18.6533C644.986 18.6533 644.173 19.4666 644.173 20.48C644.173 21.4933 644.986 22.3066 646 22.3066C647.013 22.3066 647.826 21.4933 647.826 20.48C647.826 19.4666 647.013 18.6533 646 18.6533Z" fill="current"/>
<path d="M651.6 12H651.333V8.00002C651.333 5.05335 648.946 2.66669 646 2.66669C643.053 2.66669 640.666 5.05335 640.666 8.00002V12H640.4C637.6 12 635.333 14.28 635.333 17.0667V24.2534C635.333 27.0534 637.613 29.32 640.4 29.32H651.586C654.386 29.32 656.653 27.04 656.653 24.2534V17.0667C656.653 14.2667 654.373 12 651.586 12H651.6ZM643.333 8.00002C643.333 6.53335 644.533 5.33335 646 5.33335C647.466 5.33335 648.666 6.53335 648.666 8.00002V12H643.333V8.00002ZM654 24.2667C654 25.5867 652.92 26.6667 651.6 26.6667H640.413C639.093 26.6667 638.013 25.5867 638.013 24.2667V17.08C638.013 15.76 639.093 14.68 640.413 14.68H651.6C652.92 14.68 654 15.76 654 17.08V24.2667Z" fill="current"/>
<path d="M701.267 8.68001C701.2 8.53335 699.493 5.23991 694.027 5.23991C690.987 5.23991 689.133 6.29323 688.08 7.22656C687 6.2799 685.107 5.22656 681.987 5.22656C676.627 5.22656 674.933 8.53335 674.867 8.68001L674.733 8.95996V23.9066C674.733 24.6799 675.107 25.4 675.733 25.8534C676.347 26.2934 677.147 26.4 677.853 26.1466C678.827 25.8 680.347 25.3866 682.013 25.3866C684.56 25.3866 686.707 26.2534 687.307 26.52C687.507 26.6134 687.72 26.6533 687.92 26.6533C687.973 26.6533 688.013 26.64 688.067 26.6266C688.12 26.6266 688.187 26.6533 688.24 26.6533C688.44 26.6533 688.653 26.6134 688.853 26.52C689.44 26.2534 691.547 25.3999 694.08 25.3999C695.787 25.3999 697.307 25.8 698.293 26.1466C699 26.3866 699.787 26.28 700.4 25.84C701.027 25.4 701.4 24.6666 701.4 23.9066V8.94661L701.253 8.66667L701.267 8.68001ZM686.76 23.4666C685.547 23.08 683.893 22.7199 682.027 22.7199C680.16 22.7199 678.573 23.1066 677.413 23.48V9.66667C677.813 9.14667 679.08 7.90658 682 7.90658C685.067 7.90658 686.373 9.17335 686.76 9.68001V23.4666ZM698.747 23.4933C697.573 23.12 695.933 22.7466 694.093 22.7466C692.253 22.7466 690.627 23.1066 689.44 23.48V9.68001C689.827 9.16001 691.08 7.91992 694.04 7.91992C697 7.91992 698.36 9.17335 698.747 9.68001V23.5067V23.4933Z" fill="current"/>
</svg>
