<svg width="16" height="14" viewBox="0 0 16 14" fill="#C6C6C6" xmlns="http://www.w3.org/2000/svg">
<path d="M5.80899 0.361635L0.378828 6.07213C0.25879 6.19588 0.163514 6.3431 0.0984946 6.50531C0.0334752 6.66752 -3.12908e-07 6.8415 -3.05227e-07 7.01722C-2.97546e-07 7.19295 0.0334752 7.36693 0.0984946 7.52914C0.163514 7.69135 0.25879 7.83857 0.378828 7.96232L5.80899 13.6063C5.92805 13.731 6.06969 13.83 6.22576 13.8976C6.38182 13.9652 6.54922 14 6.71829 14C6.88735 14 7.05475 13.9652 7.21081 13.8976C7.36688 13.83 7.50853 13.731 7.62758 13.6063C7.86611 13.3569 8 13.0195 8 12.6678C8 12.3162 7.86611 11.9788 7.62758 11.7294L3.09391 7.01722L7.62758 2.30507C7.86418 2.05713 7.99757 1.72249 7.99898 1.37328C7.99996 1.1981 7.96765 1.02444 7.90392 0.862259C7.84019 0.700079 7.74628 0.552569 7.62758 0.42819C7.51281 0.298971 7.37454 0.194673 7.22076 0.12132C7.06698 0.0479661 6.90073 0.00701177 6.73164 0.000823237C6.56254 -0.00536529 6.39394 0.0233348 6.23558 0.0852647C6.07721 0.147195 5.93222 0.241127 5.80899 0.361635Z" fill="current"/>
<path d="M13.809 0.361635L8.37883 6.07213C8.25879 6.19588 8.16351 6.3431 8.09849 6.50531C8.03348 6.66752 8 6.8415 8 7.01722C8 7.19295 8.03348 7.36693 8.09849 7.52914C8.16351 7.69135 8.25879 7.83857 8.37883 7.96232L13.809 13.6063C13.928 13.731 14.0697 13.83 14.2258 13.8976C14.3818 13.9652 14.5492 14 14.7183 14C14.8874 14 15.0547 13.9652 15.2108 13.8976C15.3669 13.83 15.5085 13.731 15.6276 13.6063C15.8661 13.3569 16 13.0195 16 12.6678C16 12.3162 15.8661 11.9788 15.6276 11.7294L11.0939 7.01722L15.6276 2.30507C15.8642 2.05713 15.9976 1.72249 15.999 1.37328C16 1.1981 15.9677 1.02444 15.9039 0.862259C15.8402 0.700079 15.7463 0.552569 15.6276 0.42819C15.5128 0.298971 15.3745 0.194673 15.2208 0.12132C15.067 0.0479661 14.9007 0.00701177 14.7316 0.000823237C14.5625 -0.00536529 14.3939 0.0233348 14.2356 0.0852647C14.0772 0.147195 13.9322 0.241127 13.809 0.361635Z" fill="current"/>
</svg>
