<svg width="16" height="14" viewBox="0 0 16 14" fill="none" xmlns="http://www.w3.org/2000/svg">
<path d="M10.191 0.361635L15.6212 6.07213C15.7412 6.19588 15.8365 6.3431 15.9015 6.50531C15.9665 6.66752 16 6.8415 16 7.01722C16 7.19295 15.9665 7.36693 15.9015 7.52914C15.8365 7.69135 15.7412 7.83857 15.6212 7.96232L10.191 13.6063C10.072 13.731 9.93031 13.83 9.77424 13.8976C9.61818 13.9652 9.45078 14 9.28171 14C9.11265 14 8.94525 13.9652 8.78919 13.8976C8.63312 13.83 8.49147 13.731 8.37242 13.6063C8.13389 13.3569 8 13.0195 8 12.6678C8 12.3162 8.13389 11.9788 8.37242 11.7294L12.9061 7.01722L8.37242 2.30507C8.13582 2.05713 8.00243 1.72249 8.00102 1.37328C8.00004 1.1981 8.03235 1.02444 8.09608 0.862259C8.15981 0.700079 8.25372 0.552569 8.37242 0.42819C8.48719 0.298971 8.62546 0.194673 8.77924 0.12132C8.93302 0.0479661 9.09927 0.00701177 9.26836 0.000823237C9.43746 -0.00536529 9.60606 0.0233348 9.76442 0.0852647C9.92279 0.147195 10.0678 0.241127 10.191 0.361635Z" fill="#4D4D4F"/>
<path d="M2.19101 0.361635L7.62117 6.07213C7.74121 6.19588 7.83649 6.3431 7.90151 6.50531C7.96652 6.66752 8 6.8415 8 7.01722C8 7.19295 7.96652 7.36693 7.90151 7.52914C7.83649 7.69135 7.74121 7.83857 7.62117 7.96232L2.19101 13.6063C2.07195 13.731 1.93031 13.83 1.77424 13.8976C1.61818 13.9652 1.45078 14 1.28171 14C1.11265 14 0.945251 13.9652 0.789186 13.8976C0.633121 13.83 0.491475 13.731 0.372417 13.6063C0.133886 13.3569 -1.67951e-07 13.0195 -1.52579e-07 12.6678C-1.37208e-07 12.3162 0.133886 11.9788 0.372417 11.7294L4.90609 7.01722L0.372418 2.30507C0.135816 2.05713 0.00242997 1.72249 0.0010153 1.37328C4.0832e-05 1.1981 0.0323459 1.02444 0.0960794 0.862259C0.159813 0.700079 0.253721 0.552569 0.372418 0.42819C0.487191 0.298971 0.625463 0.194673 0.779244 0.12132C0.933025 0.0479661 1.09927 0.00701177 1.26836 0.000823237C1.43746 -0.00536529 1.60606 0.0233348 1.76442 0.0852647C1.92279 0.147195 2.06778 0.241127 2.19101 0.361635Z" fill="#4D4D4F"/>
</svg>
