<svg width="32" height="32" viewBox="0 0 32 32" fill="#676A71" xmlns="http://www.w3.org/2000/svg">
<path d="M15.9996 13.8667C14.8262 13.8667 13.8662 14.8267 13.8662 16C13.8662 17.1733 14.8262 18.1333 15.9996 18.1333C17.1729 18.1333 18.1329 17.1733 18.1329 16C18.1329 14.8267 17.1729 13.8667 15.9996 13.8667Z" fill="current"/>
<path d="M15.9996 22.4C14.8262 22.4 13.8662 23.36 13.8662 24.5333C13.8662 25.7067 14.8262 26.6667 15.9996 26.6667C17.1729 26.6667 18.1329 25.7067 18.1329 24.5333C18.1329 23.36 17.1729 22.4 15.9996 22.4Z" fill="current"/>
<path d="M15.9996 9.59999C17.1729 9.59999 18.1329 8.63998 18.1329 7.46664C18.1329 6.29331 17.1729 5.33334 15.9996 5.33334C14.8262 5.33334 13.8662 6.29331 13.8662 7.46664C13.8662 8.63998 14.8262 9.59999 15.9996 9.59999Z" fill="current"/>
</svg>
