<svg width="32" height="32" viewBox="0 0 32 32" fill="none" xmlns="http://www.w3.org/2000/svg">
<path d="M28.0003 14.6667H7.02702L14.107 7.60002C14.627 7.08002 14.627 6.24002 14.107 5.72002C13.587 5.20002 12.747 5.20002 12.227 5.72002L3.20036 14.72C2.88036 15.04 2.72035 15.4667 2.69368 15.8934C2.69368 15.9334 2.66699 15.96 2.66699 16C2.66699 16.04 2.68035 16.0667 2.69368 16.1067C2.72035 16.5334 2.88036 16.96 3.20036 17.28L12.227 26.28C12.4936 26.5333 12.827 26.6667 13.1737 26.6667C13.5203 26.6667 13.8537 26.5333 14.1204 26.28C14.6404 25.76 14.6404 24.92 14.1204 24.4L7.04036 17.3467H28.0137C28.747 17.3467 29.347 16.7467 29.347 16.0134C29.347 15.28 28.747 14.68 28.0137 14.68L28.0003 14.6667Z" fill="#676A71"/>
</svg>
